<svg xmlns="http://www.w3.org/2000/svg" width="16" height="16" viewBox="0 0 16 16" fill="currentColor"><path fill-rule="evenodd" clip-rule="evenodd" d="M8 1a3.498 3.498 0 1 0 0 6.996A3.498 3.498 0 0 0 8 1zM6.002 4.498a1.998 1.998 0 1 1 3.996 0 1.998 1.998 0 0 1-3.996 0z"/><path fill-rule="evenodd" clip-rule="evenodd" d="M3.49 13.274c0-.686.18-1.16.432-1.501.257-.35.628-.614 1.09-.81.287-.122.596-.212.912-.279L5.36 9.275a6.206 6.206 0 0 0-.935.308c-.636.27-1.254.68-1.711 1.3-.463.629-.724 1.423-.724 2.39a.75.75 0 0 0 1.5 0z"/><path fill-rule="evenodd" clip-rule="evenodd" d="M10.988 10.963a4.96 4.96 0 0 0-.912-.279l.564-1.409c.316.078.632.179.935.308.637.27 1.254.68 1.711 1.3.463.629.724 1.423.724 2.39a.75.75 0 0 1-1.5 0c0-.685-.18-1.158-.431-1.5-.258-.35-.63-.614-1.09-.81z"/><path fill-rule="evenodd" clip-rule="evenodd" d="m7.5 11-.845 3.379A.5.5 0 0 0 7.14 15h1.72a.5.5 0 0 0 .485-.621L8.5 11c.58-.486.79-.902.948-1.71A.245.245 0 0 0 9.205 9H6.8a.248.248 0 0 0-.244.295c.158.791.316 1.169.944 1.705z"/></svg>