<svg xmlns="http://www.w3.org/2000/svg" width="24" height="24" viewBox="0 0 24 24" fill="currentColor"><path fill-rule="evenodd" clip-rule="evenodd" d="M12 7.623a4.377 4.377 0 1 0 0 8.754 4.377 4.377 0 0 0 0-8.754zM9.123 12a2.877 2.877 0 1 1 5.754 0 2.877 2.877 0 0 1-5.754 0z"/><path fill-rule="evenodd" clip-rule="evenodd" d="M11.165 2a2.2 2.2 0 0 0-2.194 2.03l-.041.522c-.02.256-.199.529-.523.702-.154.082-.305.17-.452.261-.311.195-.637.213-.869.103l-.474-.227a2.2 2.2 0 0 0-2.854.886l-.835 1.446a2.2 2.2 0 0 0 .66 2.915l.434.298c.211.145.358.436.346.802a7.792 7.792 0 0 0 0 .524c.012.366-.135.657-.346.802l-.434.298a2.2 2.2 0 0 0-.66 2.915l.835 1.445a2.2 2.2 0 0 0 2.854.886l.474-.226c.232-.11.558-.092.87.102.146.092.297.18.45.261.325.174.504.447.524.702l.041.523A2.2 2.2 0 0 0 11.165 22h1.67a2.2 2.2 0 0 0 2.194-2.03l.04-.523c.02-.255.2-.528.524-.701.154-.083.305-.17.452-.262.311-.194.637-.213.869-.102l.474.226a2.2 2.2 0 0 0 2.854-.886l.835-1.445a2.2 2.2 0 0 0-.66-2.915l-.434-.298c-.211-.146-.358-.436-.346-.802a7.86 7.86 0 0 0 0-.524c-.012-.366.135-.657.346-.802l.434-.298a2.2 2.2 0 0 0 .66-2.915l-.835-1.446a2.2 2.2 0 0 0-2.854-.886l-.474.227c-.232.11-.558.092-.869-.103a7.62 7.62 0 0 0-.452-.26c-.324-.174-.503-.447-.523-.703l-.041-.523A2.201 2.201 0 0 0 12.835 2h-1.67zm-.698 2.147a.7.7 0 0 1 .698-.647h1.67a.7.7 0 0 1 .698.647l.042.523c.068.871.638 1.548 1.312 1.907.123.066.245.136.363.21.648.406 1.52.562 2.31.185l.474-.227a.7.7 0 0 1 .91.282l.834 1.446a.7.7 0 0 1-.21.928l-.434.299c-.72.494-1.022 1.325-.996 2.089a6.178 6.178 0 0 1 0 .422c-.026.764.276 1.595.996 2.09l.434.297a.7.7 0 0 1 .21.929l-.835 1.446a.7.7 0 0 1-.909.282l-.474-.227c-.79-.377-1.662-.221-2.31.184-.118.074-.24.144-.363.21-.674.36-1.244 1.036-1.313 1.908l-.04.523a.7.7 0 0 1-.7.646h-1.669a.7.7 0 0 1-.698-.646l-.042-.523c-.068-.872-.638-1.548-1.312-1.908a6.158 6.158 0 0 1-.363-.21c-.648-.405-1.52-.56-2.31-.184l-.474.227a.7.7 0 0 1-.91-.282l-.834-1.446a.7.7 0 0 1 .21-.929l.434-.298c.72-.494 1.022-1.325.996-2.089a6.268 6.268 0 0 1 0-.423c.026-.763-.276-1.594-.996-2.089l-.434-.298a.7.7 0 0 1-.21-.928l.835-1.446a.7.7 0 0 1 .909-.282l.474.227c.79.377 1.662.22 2.31-.185a6.14 6.14 0 0 1 .363-.21c.674-.359 1.244-1.036 1.312-1.907l.041-.523z"/></svg>